<svg id="logoipsum" xmlns="http://www.w3.org/2000/svg" width="182.198" height="32.681" viewBox="0 0 182.198 32.681">
  <path id="Path_1727" data-name="Path 1727" d="M12.329,0l8.443,7.213a2.26,2.26,0,0,1,.79,1.719v5.436L13.119,7.155a2.26,2.26,0,0,1-.79-1.719Z" transform="translate(-2.256)" fill="#7b19d8"/>
  <path id="Path_1728" data-name="Path 1728" d="M12.329,36.782l8.443-7.213a2.26,2.26,0,0,0,.79-1.719V22.414l-8.443,7.213a2.26,2.26,0,0,0-.79,1.719Z" transform="translate(-2.256 -4.101)" fill="#7b19d8"/>
  <path id="Path_1729" data-name="Path 1729" d="M0,9.31l8.328,7.076a2.229,2.229,0,0,0,1.443.531h6.717L8.181,9.843A2.229,2.229,0,0,0,6.735,9.31Z" transform="translate(0 -1.704)" fill="#7b19d8"/>
  <path id="Path_1730" data-name="Path 1730" d="M0,28.986l8.277-7.072a2.229,2.229,0,0,1,1.448-.535h6.783L8.18,28.455a2.229,2.229,0,0,1-1.443.531Z" transform="translate(0 -3.912)" fill="#7b19d8"/>
  <path id="Path_1731" data-name="Path 1731" d="M35.6,0,27.16,7.213a2.26,2.26,0,0,0-.79,1.719v5.436l8.443-7.213a2.26,2.26,0,0,0,.79-1.719Z" transform="translate(-4.825)" fill="#7b19d8"/>
  <path id="Path_1732" data-name="Path 1732" d="M35.6,36.782,27.16,29.569a2.26,2.26,0,0,1-.79-1.719V22.414l8.443,7.213a2.26,2.26,0,0,1,.79,1.719Z" transform="translate(-4.825 -4.101)" fill="#7b19d8"/>
  <path id="Path_1733" data-name="Path 1733" d="M46.307,9.31l-8.328,7.076a2.229,2.229,0,0,1-1.443.531H29.819l8.308-7.074a2.229,2.229,0,0,1,1.445-.533Z" transform="translate(-5.456 -1.704)" fill="#7b19d8"/>
  <path id="Path_1734" data-name="Path 1734" d="M46.3,28.986l-8.277-7.072a2.229,2.229,0,0,0-1.448-.535H29.794l8.328,7.076a2.229,2.229,0,0,0,1.443.531Z" transform="translate(-5.452 -3.912)" fill="#7b19d8"/>
  <path id="Path_1735" data-name="Path 1735" d="M132.348,9.814a1.874,1.874,0,0,1-1.907-1.907A1.874,1.874,0,0,1,132.348,6a1.813,1.813,0,0,1,1.333.549,1.844,1.844,0,0,1,.549,1.359,1.844,1.844,0,0,1-.549,1.359A1.813,1.813,0,0,1,132.348,9.814Z" transform="translate(-23.867 -1.098)" fill="#320c55"/>
  <path id="Path_1736" data-name="Path 1736" d="M133.9,13V27.4H130.92V13Z" transform="translate(-23.955 -2.379)" fill="#320c55"/>
  <path id="Path_1737" data-name="Path 1737" d="M143.278,13.394a6.054,6.054,0,0,0-2.065,1.672V12.95h-2.979v21.24h2.979V25.256a6.713,6.713,0,0,0,2.091,1.672,6.35,6.35,0,0,0,2.927.653,6.445,6.445,0,0,0,3.423-.941,6.722,6.722,0,0,0,2.456-2.665A8.373,8.373,0,0,0,153,20.083a8.06,8.06,0,0,0-.888-3.841,6.633,6.633,0,0,0-5.879-3.527A6.306,6.306,0,0,0,143.278,13.394Zm6.062,4.128a4.978,4.978,0,0,1,.627,2.56,5.268,5.268,0,0,1-.627,2.613,4.312,4.312,0,0,1-1.62,1.724,4.206,4.206,0,0,1-2.143.575,4.3,4.3,0,0,1-2.142-.575,4.394,4.394,0,0,1-1.62-1.672,5.451,5.451,0,0,1-.6-2.613,5.3,5.3,0,0,1,.6-2.586,4.394,4.394,0,0,1,1.62-1.672,4.3,4.3,0,0,1,2.142-.575,4.206,4.206,0,0,1,2.143.575A4,4,0,0,1,149.34,17.522Z" transform="translate(-25.293 -2.326)" fill="#320c55" fill-rule="evenodd"/>
  <path id="Path_1738" data-name="Path 1738" d="M163.841,27.581a7.483,7.483,0,0,1-3.057-.6,5.519,5.519,0,0,1-2.116-1.672,4.23,4.23,0,0,1-.837-2.377h3.083a2.156,2.156,0,0,0,.863,1.541,3.284,3.284,0,0,0,2.012.6,3.373,3.373,0,0,0,1.934-.47,1.484,1.484,0,0,0,.706-1.254,1.273,1.273,0,0,0-.784-1.2,13.944,13.944,0,0,0-2.43-.862,23.639,23.639,0,0,1-2.64-.862,4.737,4.737,0,0,1-1.776-1.28,3.394,3.394,0,0,1-.732-2.273,3.483,3.483,0,0,1,.68-2.09,4.491,4.491,0,0,1,1.933-1.515,7.372,7.372,0,0,1,2.927-.549,5.922,5.922,0,0,1,3.946,1.254,4.4,4.4,0,0,1,1.62,3.37h-2.979a2.121,2.121,0,0,0-.784-1.541,2.93,2.93,0,0,0-1.907-.575,3.1,3.1,0,0,0-1.8.444,1.375,1.375,0,0,0-.627,1.176,1.273,1.273,0,0,0,.418.967,3.146,3.146,0,0,0,1.019.627q.6.209,1.777.549a17.389,17.389,0,0,1,2.561.862A4.633,4.633,0,0,1,168.6,21.1a3.355,3.355,0,0,1,.758,2.221,3.72,3.72,0,0,1-.68,2.195,4.489,4.489,0,0,1-1.934,1.515A7.064,7.064,0,0,1,163.841,27.581Z" transform="translate(-28.878 -2.326)" fill="#320c55"/>
  <path id="Path_1739" data-name="Path 1739" d="M214.868,13.421a6.381,6.381,0,0,0-3.031-.705,5.949,5.949,0,0,0-2.979.784,4.755,4.755,0,0,0-2.038,2.064,5,5,0,0,0-2.091-2.116,6.4,6.4,0,0,0-3.083-.732,5.882,5.882,0,0,0-2.4.5,4.952,4.952,0,0,0-1.855,1.385V12.95h-2.979v14.4h2.979V19.3a4.132,4.132,0,0,1,.967-2.952,3.505,3.505,0,0,1,2.666-1.045,3.419,3.419,0,0,1,2.639,1.045,4.128,4.128,0,0,1,.967,2.952v8.047h2.954V19.3a4.128,4.128,0,0,1,.967-2.952,3.5,3.5,0,0,1,2.665-1.045,3.42,3.42,0,0,1,2.64,1.045,4.132,4.132,0,0,1,.967,2.952v8.047h2.953V18.855a6.693,6.693,0,0,0-.784-3.344A5,5,0,0,0,214.868,13.421Z" transform="translate(-35.571 -2.326)" fill="#320c55"/>
  <path id="Path_1740" data-name="Path 1740" d="M187.767,27.4V13h-2.979v8.021A4.157,4.157,0,0,1,183.794,24a3.927,3.927,0,0,1-5.278,0,4.226,4.226,0,0,1-.967-2.978V13H174.6v8.465a6.868,6.868,0,0,0,.758,3.344,5.2,5.2,0,0,0,2.116,2.09,6.536,6.536,0,0,0,3.057.705,5.883,5.883,0,0,0,2.4-.5,4.92,4.92,0,0,0,1.855-1.411v1.7Z" transform="translate(-31.946 -2.379)" fill="#320c55"/>
  <path id="Path_1741" data-name="Path 1741" d="M113.989,26.666a7.456,7.456,0,0,0,3.684.914,7.81,7.81,0,0,0,3.763-.914,6.942,6.942,0,0,0,2.717-2.639,7.569,7.569,0,0,0,.993-3.893,7.727,7.727,0,0,0-.967-3.893,6.68,6.68,0,0,0-2.639-2.613,8.094,8.094,0,0,0-7.474,0,6.68,6.68,0,0,0-2.639,2.613,7.727,7.727,0,0,0-.967,3.893,7.959,7.959,0,0,0,.94,3.919A6.778,6.778,0,0,0,113.989,26.666Zm5.827-2.221a4.362,4.362,0,0,1-2.143.549,3.991,3.991,0,0,1-3.005-1.254,5.137,5.137,0,0,1-1.176-3.605,5.524,5.524,0,0,1,.574-2.639,3.935,3.935,0,0,1,1.542-1.646,4.46,4.46,0,0,1,4.286,0,4.042,4.042,0,0,1,1.594,1.646,5.329,5.329,0,0,1,.6,2.639,5.3,5.3,0,0,1-.627,2.665A4.159,4.159,0,0,1,119.816,24.446Z" transform="translate(-20.211 -2.326)" fill="#320c55" fill-rule="evenodd"/>
  <path id="Path_1742" data-name="Path 1742" d="M94.773,26.7l-.061-.033a6.779,6.779,0,0,1-2.587-2.613,7.953,7.953,0,0,1-.941-3.919,7.728,7.728,0,0,1,.967-3.893,6.677,6.677,0,0,1,2.639-2.613,8.093,8.093,0,0,1,7.474,0,6.68,6.68,0,0,1,2.639,2.613,7.727,7.727,0,0,1,.967,3.893,7.57,7.57,0,0,1-.993,3.893,6.942,6.942,0,0,1-2.717,2.639,7.678,7.678,0,0,1-3.192.9,29.914,29.914,0,0,0,4.773,1.462,7.047,7.047,0,0,1,.9.242h0v2.98H93.791v-2.98h6.254A18.186,18.186,0,0,1,94.773,26.7ZM98.4,24.994a4.364,4.364,0,0,0,2.143-.549,4.159,4.159,0,0,0,1.646-1.646,5.3,5.3,0,0,0,.627-2.665,5.329,5.329,0,0,0-.6-2.639,4.042,4.042,0,0,0-1.594-1.646,4.459,4.459,0,0,0-4.286,0A3.926,3.926,0,0,0,94.791,17.5a5.523,5.523,0,0,0-.575,2.639,5.135,5.135,0,0,0,1.176,3.605A3.991,3.991,0,0,0,98.4,24.994Z" transform="translate(-16.684 -2.326)" fill="#320c55" fill-rule="evenodd"/>
  <path id="Path_1743" data-name="Path 1743" d="M75.436,26.666a7.459,7.459,0,0,0,3.685.914,7.811,7.811,0,0,0,3.763-.914A6.943,6.943,0,0,0,85.6,24.028a7.567,7.567,0,0,0,.993-3.893,7.728,7.728,0,0,0-.967-3.893,6.677,6.677,0,0,0-2.639-2.613,8.092,8.092,0,0,0-7.474,0,6.677,6.677,0,0,0-2.639,2.613,7.728,7.728,0,0,0-.967,3.893,7.953,7.953,0,0,0,.941,3.919A6.779,6.779,0,0,0,75.436,26.666Zm5.827-2.221a4.361,4.361,0,0,1-2.143.549,3.99,3.99,0,0,1-3.005-1.254,5.135,5.135,0,0,1-1.176-3.605,5.523,5.523,0,0,1,.575-2.639,3.926,3.926,0,0,1,1.542-1.646,4.459,4.459,0,0,1,4.285,0A4.038,4.038,0,0,1,82.936,17.5a5.325,5.325,0,0,1,.6,2.639A5.29,5.29,0,0,1,82.91,22.8,4.154,4.154,0,0,1,81.263,24.446Z" transform="translate(-13.157 -2.326)" fill="#320c55" fill-rule="evenodd"/>
  <path id="Path_1744" data-name="Path 1744" d="M62.979,24.152H69.12v2.4H60V8.4h2.979Z" transform="translate(-10.978 -1.537)" fill="#320c55"/>
</svg>
